HIERARCHY
ROOT Hips
{
	OFFSET 0.000000 89.005402 0.000000
	CHANNELS 6 Xposition Yposition Zposition Xrotation Yrotation Zrotation
	JOINT Spine
	{
		OFFSET 0.116900 10.681000 0.373400
		CHANNELS 3 Xrotation Yrotation Zrotation
		JOINT Spine1
		{
			OFFSET 0.000000 13.840401 0.053500
			CHANNELS 3 Xrotation Yrotation Zrotation
			JOINT Spine2
			{
				OFFSET 0.000000 14.712700 -0.366200
				CHANNELS 3 Xrotation Yrotation Zrotation
				JOINT Neck
				{
					OFFSET 0.000000 35.415497 -3.314200
					CHANNELS 3 Xrotation Yrotation Zrotation
					JOINT Head
					{
						OFFSET 0.000000 16.899200 1.218300
						CHANNELS 3 Xrotation Yrotation Zrotation
						JOINT HeadTop_End
						{
							OFFSET 0.000000 22.206207 2.192500
							CHANNELS 3 Xrotation Yrotation Zrotation
							End Site
							{
								OFFSET 0.000000 22.314178 0.000000
							}
						}
					}
				}
				JOINT LeftShoulder
				{
					OFFSET 12.896400 26.716293 -4.548400
					CHANNELS 3 Xrotation Yrotation Zrotation
					JOINT LeftArm
					{
						OFFSET 19.027000 -4.857010 -1.718400
						CHANNELS 3 Xrotation Yrotation Zrotation
						JOINT LeftForeArm
						{
							OFFSET 24.179897 0.000000 0.000000
							CHANNELS 3 Xrotation Yrotation Zrotation
							JOINT LeftHand
							{
								OFFSET 27.156403 0.000000 0.000000
								CHANNELS 3 Xrotation Yrotation Zrotation
								JOINT LeftHandIndex1
								{
									OFFSET 16.441200 0.000000 0.000000
									CHANNELS 3 Xrotation Yrotation Zrotation
									JOINT LeftHandIndex2
									{
										OFFSET 4.821899 0.000000 0.000000
										CHANNELS 3 Xrotation Yrotation Zrotation
										JOINT LeftHandIndex3
										{
											OFFSET 6.386497 0.000000 0.000000
											CHANNELS 3 Xrotation Yrotation Zrotation
											JOINT LeftHandIndex4
											{
												OFFSET 5.188988 0.000000 0.000000
												CHANNELS 3 Xrotation Yrotation Zrotation
												End Site
												{
													OFFSET -0.178703 5.185913 0.000177
												}
											}
										}
									}
								}
								JOINT LeftHandThumb1
								{
									OFFSET 6.534897 -5.032593 5.900300
									CHANNELS 3 Xrotation Yrotation Zrotation
									JOINT LeftHandThumb2
									{
										OFFSET 3.818176 -2.204422 2.204423
										CHANNELS 3 Xrotation Yrotation Zrotation
										JOINT LeftHandThumb3
										{
											OFFSET 3.252098 -1.877594 1.877601
											CHANNELS 3 Xrotation Yrotation Zrotation
											JOINT LeftHandThumb4
											{
												OFFSET 5.251778 -3.032120 3.032117
												CHANNELS 3 Xrotation Yrotation Zrotation
												End Site
												{
													OFFSET 0.000023 6.780014 0.000000
												}
											}
										}
									}
								}
							}
						}
					}
				}
				JOINT RightShoulder
				{
					OFFSET -12.896300 26.716293 -4.548400
					CHANNELS 3 Xrotation Yrotation Zrotation
					JOINT RightArm
					{
						OFFSET -19.027000 -4.857010 -1.718400
						CHANNELS 3 Xrotation Yrotation Zrotation
						JOINT RightForeArm
						{
							OFFSET -24.179897 0.000000 0.000000
							CHANNELS 3 Xrotation Yrotation Zrotation
							JOINT RightHand
							{
								OFFSET -27.156403 0.000000 0.000000
								CHANNELS 3 Xrotation Yrotation Zrotation
								JOINT RightHandThumb1
								{
									OFFSET -6.591202 -4.852203 5.988100
									CHANNELS 3 Xrotation Yrotation Zrotation
									JOINT RightHandThumb2
									{
										OFFSET -3.818176 -2.204422 2.204423
										CHANNELS 3 Xrotation Yrotation Zrotation
										JOINT RightHandThumb3
										{
											OFFSET -3.252098 -1.877594 1.877601
											CHANNELS 3 Xrotation Yrotation Zrotation
											JOINT RightHandThumb4
											{
												OFFSET -5.251778 -3.032120 3.032117
												CHANNELS 3 Xrotation Yrotation Zrotation
												End Site
												{
													OFFSET -0.000023 6.780014 0.000000
												}
											}
										}
									}
								}
								JOINT RightHandIndex1
								{
									OFFSET -16.029404 0.000000 0.000000
									CHANNELS 3 Xrotation Yrotation Zrotation
									JOINT RightHandIndex2
									{
										OFFSET -5.213303 0.000000 0.000000
										CHANNELS 3 Xrotation Yrotation Zrotation
										JOINT RightHandIndex3
										{
											OFFSET -6.386528 0.000000 0.000000
											CHANNELS 3 Xrotation Yrotation Zrotation
											JOINT RightHandIndex4
											{
												OFFSET -5.189026 0.000000 0.000000
												CHANNELS 3 Xrotation Yrotation Zrotation
												End Site
												{
													OFFSET 0.236702 5.183624 0.001972
												}
											}
										}
									}
								}
							}
						}
					}
				}
			}
		}
	}
	JOINT LeftUpLeg
	{
		OFFSET 14.073000 -7.904099 -1.463000
		CHANNELS 3 Xrotation Yrotation Zrotation
		JOINT LeftLeg
		{
			OFFSET -0.109806 -34.073280 4.093200
			CHANNELS 3 Xrotation Yrotation Zrotation
			JOINT LeftFoot
			{
				OFFSET 0.109806 -29.899420 -6.319000
				CHANNELS 3 Xrotation Yrotation Zrotation
				JOINT LeftToeBase
				{
					OFFSET 1.551100 -14.988700 20.535801
					CHANNELS 3 Xrotation Yrotation Zrotation
					JOINT LeftToe_End
					{
						OFFSET 0.221200 0.570800 13.248301
						CHANNELS 3 Xrotation Yrotation Zrotation
						End Site
						{
							OFFSET 0.000000 13.262435 0.000000
						}
					}
				}
			}
		}
	}
	JOINT RightUpLeg
	{
		OFFSET -13.839300 -7.904099 -1.463000
		CHANNELS 3 Xrotation Yrotation Zrotation
		JOINT RightLeg
		{
			OFFSET 0.109694 -34.073219 4.093300
			CHANNELS 3 Xrotation Yrotation Zrotation
			JOINT RightFoot
			{
				OFFSET -0.109694 -29.899384 -6.319200
				CHANNELS 3 Xrotation Yrotation Zrotation
				JOINT RightToeBase
				{
					OFFSET -1.551100 -14.988700 20.535801
					CHANNELS 3 Xrotation Yrotation Zrotation
					JOINT RightToe_End
					{
						OFFSET -0.221200 0.570900 13.248299
						CHANNELS 3 Xrotation Yrotation Zrotation
						End Site
						{
							OFFSET 0.000000 13.262440 0.000000
						}
					}
				}
			}
		}
	}
}
MOTION
Frames: 4
Frame Time: 0.033333
0.425517 87.517380 1.224282 -3.753238 -5.224743 -3.386029 3.306667 1.524154 2.371470 1.151890 0.340398 1.558505 1.126014 0.362614 1.564431 5.626002 -0.070371 0.454683 -7.563833 1.385257 -0.078332 0.000000 0.000000 -0.000000 1.050036 -17.439517 -12.319254 3.916269 -19.989249 -69.765232 0.000002 -1.459367 -0.000006 -33.230421 -1.364919 -6.186732 0.003811 -0.967559 -7.592623 0.267870 1.752894 -17.375711 0.057680 0.820956 -8.037995 -0.000001 0.000000 0.000003 -0.663004 2.160314 4.832524 11.843937 25.422468 17.059924 -13.804325 3.534801 9.036021 -0.000002 0.000001 0.000001 1.200155 15.342890 14.705978 13.158857 27.555124 58.785150 0.000003 6.693734 0.000004 -20.178344 -0.518302 6.781275 -1.665253 -0.174479 -4.219041 12.710921 -29.825449 -16.130977 -15.556459 -3.560887 -12.706689 0.000003 0.000001 -0.000001 0.032498 1.261604 6.823435 0.213726 -1.396034 17.407031 0.046034 -0.653854 8.053220 0.000000 -0.000001 0.000001 -10.572868 14.640111 11.285493 14.297669 1.680709 4.168017 -0.854827 0.906335 -8.546669 -4.928525 0.000002 -0.000002 -0.000000 -0.000001 0.000000 4.176996 -10.133735 2.650844 5.544893 -9.466969 -3.268672 -5.143791 -2.100212 4.560595 -7.282874 0.000014 0.000001 -0.000000 0.000000 0.000000 
0.421201 87.505951 1.233664 -3.779682 -5.224891 -3.385205 3.296802 1.524269 2.368219 1.132289 0.340398 1.558506 1.106471 0.362613 1.564432 5.626002 -0.070370 0.433486 -7.455144 1.424203 -0.117900 0.000000 -0.000000 -0.000000 1.059836 -17.436394 -12.254725 3.954045 -19.947545 -69.840064 -0.000000 -1.434251 0.000004 -33.219486 -1.333834 -6.237507 -0.004828 -1.045173 -7.577152 0.267331 1.751174 -17.358161 0.057424 0.819129 -8.020024 -0.000000 0.000000 0.000001 -0.759776 2.172927 4.913685 11.856051 25.422941 17.021161 -13.805847 3.521580 9.007204 -0.000001 0.000002 0.000004 1.212602 15.329352 14.655378 13.174407 27.572104 58.801208 0.000006 6.666500 -0.000003 -20.178179 -0.524576 6.798317 -1.564484 -0.112412 -4.125630 12.690848 -29.825630 -16.187804 -15.552988 -3.580955 -12.711119 0.000003 0.000001 0.000002 0.027819 1.236652 6.929563 0.209871 -1.383706 17.248475 0.044241 -0.641058 7.894696 0.000001 -0.000000 -0.000001 -10.567652 14.637927 11.284157 14.365961 1.680980 4.181813 -0.899119 0.908107 -8.548838 -4.937975 -0.000004 0.000003 -0.000001 0.000000 0.000000 4.169701 -10.130308 2.633370 5.639868 -9.475227 -3.266978 -5.203598 -2.101591 4.577795 -7.282876 -0.000000 -0.000000 0.000000 -0.000000 0.000000 
0.414877 87.488251 1.248130 -3.809205 -5.226914 -3.383332 3.282748 1.524457 2.363517 1.105382 0.340400 1.558505 1.079579 0.362614 1.564432 5.619380 -0.067371 0.411181 -7.349605 1.459196 -0.151542 0.000000 0.000000 -0.000000 1.073485 -17.431713 -12.160511 3.972971 -19.897509 -69.942203 0.000003 -1.409024 -0.000001 -33.237688 -1.286003 -6.305944 -0.000785 -1.053507 -7.524027 0.267383 1.751329 -17.359710 0.057444 0.819284 -8.021579 0.000000 -0.000000 -0.000000 -0.809883 2.093012 4.891682 11.858811 25.423057 17.012311 -13.805947 3.519863 9.002065 -0.000000 0.000002 0.000005 1.229079 15.309664 14.562991 13.164355 27.576025 58.855467 -0.000001 6.635036 0.000025 -20.160369 -0.535525 6.836791 -1.625672 -0.099599 -4.197527 12.711324 -29.825435 -16.129826 -15.555676 -3.565415 -12.707682 0.000003 -0.000001 0.000000 0.027950 1.291086 6.840248 0.213532 -1.395462 17.399736 0.045942 -0.653265 8.045906 0.000002 -0.000000 -0.000002 -10.575474 14.634768 11.282183 14.475336 1.681247 4.197329 -0.964374 0.910550 -8.551766 -4.949530 -0.000006 0.000001 -0.000000 0.000000 0.000000 4.145721 -10.125302 2.609448 5.785907 -9.479585 -3.264528 -5.294432 -2.106686 4.600529 -7.282879 -0.000001 -0.000001 -0.000000 0.000001 -0.000000 
0.407772 87.472656 1.265793 -3.837997 -5.230861 -3.376792 3.265547 1.524602 2.360037 1.073750 0.340400 1.558505 1.047974 0.362612 1.564432 5.582680 -0.061230 0.388832 -7.283511 1.487330 -0.166233 -0.000000 -0.000000 -0.000000 1.092277 -17.425385 -12.032375 3.969189 -19.853586 -70.067188 -0.000003 -1.389229 0.000012 -33.271569 -1.246672 -6.379228 0.002047 -1.028829 -7.544519 0.267812 1.752711 -17.373858 0.057652 0.820733 -8.035802 -0.000000 -0.000000 -0.000000 -0.814403 2.097702 4.884726 11.853274 25.422833 17.030068 -13.801343 3.520250 8.994596 -0.000001 0.000000 0.000003 1.252770 15.272315 14.429138 13.114314 27.582722 58.955994 -0.000011 6.601124 0.000008 -20.113620 -0.547431 6.883408 -1.632638 -0.089093 -4.212941 12.719360 -29.825356 -16.107085 -15.556649 -3.559860 -12.706463 0.000003 0.000001 0.000000 0.029335 1.302328 6.800610 0.213019 -1.393796 17.378291 0.045698 -0.651536 8.024450 0.000000 0.000001 -0.000001 -10.574464 14.642020 11.279854 14.569777 1.674052 4.209302 -1.024479 0.912319 -8.553905 -4.961339 -0.000005 -0.000000 0.000000 -0.000000 0.000000 4.129306 -10.131156 2.585646 5.924173 -9.470539 -3.252333 -5.386631 -2.118952 4.609078 -7.282874 0.000000 0.000001 0.000000 0.000000 0.000000 
